# xmcd
# 
# Track frame offsets:
#     150
#     10215
#     26136
#     42953
#     54611
#     65918
#     75847
#     89314
#     104040
#     115686
#     134164
#     144472
#     157293
#     178489
#     192312
#     198408
#     212761
#     228600
#     240849
#     262604
#     275959
#     294292
#     310163
#     333987
# 
# Disc length: 4725
# 
# Revision: 2
# Processed by: cddbd v1.5.2PL0 Copyright (c) Steve Scherf et al.
# Submitted via: fre:ac v1.0.31
# 
DISCID=6b127318
DTITLE=Various Artist - Oxford American issue 103  feat. North Carolina
DYEAR=2018
DGENRE=Country
TTITLE0=Joe and Odell Thompson - Lights in the Valley (Live) 1988
TTITLE1=Tift Merrit - My Heart is Free 2008
TTITLE2=Etta Baker feat. Taj Mahal - John Henry 2004
TTITLE3=Mitchell's Christian Singers - Go Where I Send Thee 1940
TTITLE4=Ruby Johnson - Don't Play That Song (You Lied) 1967
TTITLE5=Earl Scruggs, Doc Watson and Ricky Skaggs - Don't Let Your Deal Go Down (Live) 2004
TTITLE6=Cas Wallin - Pretty Saro 1963
TTITLE7=Sylvan Esso - Hey Mami (Moog Sound Lab) 2013
TTITLE8=The Teentones - Oh My Love (Demo) 1962
TTITLE9=Superchunk - The Question Is How Fast 1992
TTITLE10=Malcolm Holcombe - You Don't Come See Me Anymore 2007
TTITLE11=Samantha Bumgarner and Eva Davis - Big-Eyed Rabbit 1924
TTITLE12=Big Boy Henry - Take My Baby To The Doctor 1982
TTITLE13=Lumbee - Streets Of Gold 1970
TTITLE14=Elizabeth Cotten - Holy Ghost, Unchain My Name 1965
TTITLE15=Nina Simone - African Mailman 1957
TTITLE16=Rapsody - Chrome (Like Ooh) 2017
TTITLE17=Vernon, Doug and Link Wray - What Will I Do? (Demo) 1952
TTITLE18=James Taylor - Copperline (Live) 2007
TTITLE19=Shannon Whitworth - Mill Mother's Lament 2018
TTITLE20=The Honeycutters - Me Oh My 2015
TTITLE21=Sun Ra and His Arkestra feat. June Tyson - Somebody Else's World 1970
TTITLE22=Alice Gerrard - Goodbyes 2014
TTITLE23=Thelonius Monk feat. John Coltrane - Crepuscule With Nellie (Take 2) 1957
EXTD=
EXTT0=
EXTT1=
EXTT2=
EXTT3=
EXTT4=
EXTT5=
EXTT6=
EXTT7=
EXTT8=
EXTT9=
EXTT10=
EXTT11=
EXTT12=
EXTT13=
EXTT14=
EXTT15=
EXTT16=
EXTT17=
EXTT18=
EXTT19=
EXTT20=
EXTT21=
EXTT22=
EXTT23=
PLAYORDER=
